<mxfile host="app.diagrams.net" agent="Mozilla/5.0 (Windows NT 10.0; Win64; x64) AppleWebKit/537.36 (KHTML, like Gecko) Chrome/134.0.0.0 Safari/537.36 Edg/134.0.0.0" version="26.1.0">
  <diagram id="C5RBs43oDa-KdzZeNtuy" name="Page-1">
    <mxGraphModel dx="2253" dy="1958" grid="1" gridSize="10" guides="1" tooltips="1" connect="1" arrows="1" fold="1" page="1" pageScale="1" pageWidth="827" pageHeight="1169" math="0" shadow="0">
      <root>
        <mxCell id="WIyWlLk6GJQsqaUBKTNV-0" />
        <mxCell id="WIyWlLk6GJQsqaUBKTNV-1" parent="WIyWlLk6GJQsqaUBKTNV-0" />
        <mxCell id="636p3Qrel6MYF2gOgdj5-25" style="edgeStyle=orthogonalEdgeStyle;rounded=0;orthogonalLoop=1;jettySize=auto;html=1;entryX=0.5;entryY=0;entryDx=0;entryDy=0;" edge="1" parent="WIyWlLk6GJQsqaUBKTNV-1" source="636p3Qrel6MYF2gOgdj5-1" target="636p3Qrel6MYF2gOgdj5-10">
          <mxGeometry relative="1" as="geometry" />
        </mxCell>
        <mxCell id="636p3Qrel6MYF2gOgdj5-26" style="edgeStyle=orthogonalEdgeStyle;rounded=0;orthogonalLoop=1;jettySize=auto;html=1;" edge="1" parent="WIyWlLk6GJQsqaUBKTNV-1" source="636p3Qrel6MYF2gOgdj5-1" target="636p3Qrel6MYF2gOgdj5-4">
          <mxGeometry relative="1" as="geometry" />
        </mxCell>
        <mxCell id="636p3Qrel6MYF2gOgdj5-1" value="Router (маршрутизатор)" style="swimlane;fontStyle=1;align=center;verticalAlign=middle;childLayout=stackLayout;horizontal=1;startSize=29;horizontalStack=0;resizeParent=1;resizeParentMax=0;resizeLast=0;collapsible=0;marginBottom=0;html=1;whiteSpace=wrap;" vertex="1" parent="WIyWlLk6GJQsqaUBKTNV-1">
          <mxGeometry x="320" y="-80" width="140" height="54" as="geometry" />
        </mxCell>
        <mxCell id="636p3Qrel6MYF2gOgdj5-2" value="метод route" style="text;html=1;strokeColor=none;fillColor=none;align=center;verticalAlign=middle;spacingLeft=4;spacingRight=4;overflow=hidden;rotatable=0;points=[[0,0.5],[1,0.5]];portConstraint=eastwest;whiteSpace=wrap;" vertex="1" parent="636p3Qrel6MYF2gOgdj5-1">
          <mxGeometry y="29" width="140" height="25" as="geometry" />
        </mxCell>
        <mxCell id="636p3Qrel6MYF2gOgdj5-33" value="" style="edgeStyle=orthogonalEdgeStyle;rounded=0;orthogonalLoop=1;jettySize=auto;html=1;" edge="1" parent="WIyWlLk6GJQsqaUBKTNV-1" source="636p3Qrel6MYF2gOgdj5-4" target="636p3Qrel6MYF2gOgdj5-30">
          <mxGeometry relative="1" as="geometry" />
        </mxCell>
        <mxCell id="636p3Qrel6MYF2gOgdj5-4" value="HomeController&lt;div&gt;(контроллер)&lt;/div&gt;" style="swimlane;fontStyle=1;align=center;verticalAlign=middle;childLayout=stackLayout;horizontal=1;startSize=29;horizontalStack=0;resizeParent=1;resizeParentMax=0;resizeLast=0;collapsible=0;marginBottom=0;html=1;whiteSpace=wrap;" vertex="1" parent="WIyWlLk6GJQsqaUBKTNV-1">
          <mxGeometry x="-70" y="214" width="140" height="54" as="geometry" />
        </mxCell>
        <mxCell id="636p3Qrel6MYF2gOgdj5-5" value="get() :string" style="text;html=1;strokeColor=none;fillColor=none;align=center;verticalAlign=middle;spacingLeft=4;spacingRight=4;overflow=hidden;rotatable=0;points=[[0,0.5],[1,0.5]];portConstraint=eastwest;whiteSpace=wrap;" vertex="1" parent="636p3Qrel6MYF2gOgdj5-4">
          <mxGeometry y="29" width="140" height="25" as="geometry" />
        </mxCell>
        <mxCell id="636p3Qrel6MYF2gOgdj5-50" style="edgeStyle=orthogonalEdgeStyle;rounded=0;orthogonalLoop=1;jettySize=auto;html=1;entryX=0;entryY=0.5;entryDx=0;entryDy=0;" edge="1" parent="WIyWlLk6GJQsqaUBKTNV-1" source="636p3Qrel6MYF2gOgdj5-7" target="636p3Qrel6MYF2gOgdj5-47">
          <mxGeometry relative="1" as="geometry" />
        </mxCell>
        <mxCell id="636p3Qrel6MYF2gOgdj5-7" value="AboutController" style="swimlane;fontStyle=1;align=center;verticalAlign=middle;childLayout=stackLayout;horizontal=1;startSize=29;horizontalStack=0;resizeParent=1;resizeParentMax=0;resizeLast=0;collapsible=0;marginBottom=0;html=1;whiteSpace=wrap;" vertex="1" parent="WIyWlLk6GJQsqaUBKTNV-1">
          <mxGeometry x="20" y="130" width="140" height="54" as="geometry" />
        </mxCell>
        <mxCell id="636p3Qrel6MYF2gOgdj5-8" value="get() : string" style="text;html=1;strokeColor=none;fillColor=none;align=center;verticalAlign=middle;spacingLeft=4;spacingRight=4;overflow=hidden;rotatable=0;points=[[0,0.5],[1,0.5]];portConstraint=eastwest;whiteSpace=wrap;" vertex="1" parent="636p3Qrel6MYF2gOgdj5-7">
          <mxGeometry y="29" width="140" height="25" as="geometry" />
        </mxCell>
        <mxCell id="636p3Qrel6MYF2gOgdj5-36" style="edgeStyle=orthogonalEdgeStyle;rounded=0;orthogonalLoop=1;jettySize=auto;html=1;entryX=0.5;entryY=0;entryDx=0;entryDy=0;" edge="1" parent="WIyWlLk6GJQsqaUBKTNV-1" source="636p3Qrel6MYF2gOgdj5-10" target="636p3Qrel6MYF2gOgdj5-17">
          <mxGeometry relative="1" as="geometry" />
        </mxCell>
        <mxCell id="636p3Qrel6MYF2gOgdj5-44" style="edgeStyle=orthogonalEdgeStyle;rounded=0;orthogonalLoop=1;jettySize=auto;html=1;" edge="1" parent="WIyWlLk6GJQsqaUBKTNV-1" source="636p3Qrel6MYF2gOgdj5-10" target="636p3Qrel6MYF2gOgdj5-22">
          <mxGeometry relative="1" as="geometry" />
        </mxCell>
        <mxCell id="636p3Qrel6MYF2gOgdj5-10" value="ProductController&lt;div&gt;(контроллер)&lt;/div&gt;" style="swimlane;fontStyle=1;align=center;verticalAlign=middle;childLayout=stackLayout;horizontal=1;startSize=29;horizontalStack=0;resizeParent=1;resizeParentMax=0;resizeLast=0;collapsible=0;marginBottom=0;html=1;whiteSpace=wrap;" vertex="1" parent="WIyWlLk6GJQsqaUBKTNV-1">
          <mxGeometry x="680" y="86" width="140" height="59" as="geometry" />
        </mxCell>
        <mxCell id="636p3Qrel6MYF2gOgdj5-12" value="get ($id:int) : string&lt;div&gt;getALL () :string&lt;/div&gt;" style="text;html=1;strokeColor=none;fillColor=none;align=left;verticalAlign=middle;spacingLeft=4;spacingRight=4;overflow=hidden;rotatable=0;points=[[0,0.5],[1,0.5]];portConstraint=eastwest;whiteSpace=wrap;" vertex="1" parent="636p3Qrel6MYF2gOgdj5-10">
          <mxGeometry y="29" width="140" height="30" as="geometry" />
        </mxCell>
        <mxCell id="636p3Qrel6MYF2gOgdj5-14" value="BaseTemplate" style="swimlane;fontStyle=1;align=center;verticalAlign=middle;childLayout=stackLayout;horizontal=1;startSize=29;horizontalStack=0;resizeParent=1;resizeParentMax=0;resizeLast=0;collapsible=0;marginBottom=0;html=1;whiteSpace=wrap;" vertex="1" parent="WIyWlLk6GJQsqaUBKTNV-1">
          <mxGeometry x="330" y="240" width="140" height="54" as="geometry" />
        </mxCell>
        <mxCell id="636p3Qrel6MYF2gOgdj5-15" value="getTemplate() : string" style="text;html=1;strokeColor=none;fillColor=none;align=center;verticalAlign=middle;spacingLeft=4;spacingRight=4;overflow=hidden;rotatable=0;points=[[0,0.5],[1,0.5]];portConstraint=eastwest;whiteSpace=wrap;" vertex="1" parent="636p3Qrel6MYF2gOgdj5-14">
          <mxGeometry y="29" width="140" height="25" as="geometry" />
        </mxCell>
        <mxCell id="636p3Qrel6MYF2gOgdj5-46" style="edgeStyle=orthogonalEdgeStyle;rounded=0;orthogonalLoop=1;jettySize=auto;html=1;" edge="1" parent="WIyWlLk6GJQsqaUBKTNV-1" source="636p3Qrel6MYF2gOgdj5-17" target="636p3Qrel6MYF2gOgdj5-14">
          <mxGeometry relative="1" as="geometry" />
        </mxCell>
        <mxCell id="636p3Qrel6MYF2gOgdj5-17" value="ProductTemplate&lt;div&gt;(представление)&lt;/div&gt;" style="swimlane;fontStyle=1;align=center;verticalAlign=middle;childLayout=stackLayout;horizontal=1;startSize=29;horizontalStack=0;resizeParent=1;resizeParentMax=0;resizeLast=0;collapsible=0;marginBottom=0;html=1;whiteSpace=wrap;" vertex="1" parent="WIyWlLk6GJQsqaUBKTNV-1">
          <mxGeometry x="680" y="240" width="140" height="60" as="geometry" />
        </mxCell>
        <mxCell id="636p3Qrel6MYF2gOgdj5-18" value="gettamplate($row: array): string" style="text;html=1;strokeColor=none;fillColor=none;align=center;verticalAlign=middle;spacingLeft=4;spacingRight=4;overflow=hidden;rotatable=0;points=[[0,0.5],[1,0.5]];portConstraint=eastwest;whiteSpace=wrap;" vertex="1" parent="636p3Qrel6MYF2gOgdj5-17">
          <mxGeometry y="29" width="140" height="31" as="geometry" />
        </mxCell>
        <mxCell id="636p3Qrel6MYF2gOgdj5-22" value="Product (модель)" style="swimlane;fontStyle=1;align=center;verticalAlign=middle;childLayout=stackLayout;horizontal=1;startSize=29;horizontalStack=0;resizeParent=1;resizeParentMax=0;resizeLast=0;collapsible=0;marginBottom=0;html=1;whiteSpace=wrap;" vertex="1" parent="WIyWlLk6GJQsqaUBKTNV-1">
          <mxGeometry x="450" y="-10" width="140" height="60" as="geometry" />
        </mxCell>
        <mxCell id="636p3Qrel6MYF2gOgdj5-24" value="get($id: int) : array&lt;div&gt;getALL: array&lt;/div&gt;" style="text;html=1;strokeColor=none;fillColor=none;align=left;verticalAlign=middle;spacingLeft=4;spacingRight=4;overflow=hidden;rotatable=0;points=[[0,0.5],[1,0.5]];portConstraint=eastwest;whiteSpace=wrap;" vertex="1" parent="636p3Qrel6MYF2gOgdj5-22">
          <mxGeometry y="29" width="140" height="31" as="geometry" />
        </mxCell>
        <mxCell id="636p3Qrel6MYF2gOgdj5-27" style="edgeStyle=orthogonalEdgeStyle;rounded=0;orthogonalLoop=1;jettySize=auto;html=1;entryX=0.5;entryY=0;entryDx=0;entryDy=0;" edge="1" parent="WIyWlLk6GJQsqaUBKTNV-1" source="636p3Qrel6MYF2gOgdj5-2" target="636p3Qrel6MYF2gOgdj5-7">
          <mxGeometry relative="1" as="geometry" />
        </mxCell>
        <mxCell id="636p3Qrel6MYF2gOgdj5-28" value="HomeTemplate" style="swimlane;fontStyle=1;align=center;verticalAlign=middle;childLayout=stackLayout;horizontal=1;startSize=29;horizontalStack=0;resizeParent=1;resizeParentMax=0;resizeLast=0;collapsible=0;marginBottom=0;html=1;whiteSpace=wrap;" vertex="1" parent="WIyWlLk6GJQsqaUBKTNV-1">
          <mxGeometry x="660" y="380" width="140" height="54" as="geometry" />
        </mxCell>
        <mxCell id="636p3Qrel6MYF2gOgdj5-30" value="&lt;div&gt;getTemplate() : string&lt;/div&gt;" style="text;html=1;strokeColor=none;fillColor=none;align=left;verticalAlign=middle;spacingLeft=4;spacingRight=4;overflow=hidden;rotatable=0;points=[[0,0.5],[1,0.5]];portConstraint=eastwest;whiteSpace=wrap;" vertex="1" parent="636p3Qrel6MYF2gOgdj5-28">
          <mxGeometry y="29" width="140" height="25" as="geometry" />
        </mxCell>
        <mxCell id="636p3Qrel6MYF2gOgdj5-40" style="edgeStyle=orthogonalEdgeStyle;rounded=0;orthogonalLoop=1;jettySize=auto;html=1;entryX=0.493;entryY=1.04;entryDx=0;entryDy=0;entryPerimeter=0;" edge="1" parent="WIyWlLk6GJQsqaUBKTNV-1" source="636p3Qrel6MYF2gOgdj5-28" target="636p3Qrel6MYF2gOgdj5-15">
          <mxGeometry relative="1" as="geometry" />
        </mxCell>
        <mxCell id="636p3Qrel6MYF2gOgdj5-51" style="edgeStyle=orthogonalEdgeStyle;rounded=0;orthogonalLoop=1;jettySize=auto;html=1;entryX=0.5;entryY=0;entryDx=0;entryDy=0;" edge="1" parent="WIyWlLk6GJQsqaUBKTNV-1" source="636p3Qrel6MYF2gOgdj5-47" target="636p3Qrel6MYF2gOgdj5-14">
          <mxGeometry relative="1" as="geometry" />
        </mxCell>
        <mxCell id="636p3Qrel6MYF2gOgdj5-47" value="AboutTemplate" style="swimlane;fontStyle=1;align=center;verticalAlign=middle;childLayout=stackLayout;horizontal=1;startSize=29;horizontalStack=0;resizeParent=1;resizeParentMax=0;resizeLast=0;collapsible=0;marginBottom=0;html=1;whiteSpace=wrap;" vertex="1" parent="WIyWlLk6GJQsqaUBKTNV-1">
          <mxGeometry x="330" y="130" width="140" height="54" as="geometry" />
        </mxCell>
        <mxCell id="636p3Qrel6MYF2gOgdj5-48" value="getTemplate() : string" style="text;html=1;strokeColor=none;fillColor=none;align=center;verticalAlign=middle;spacingLeft=4;spacingRight=4;overflow=hidden;rotatable=0;points=[[0,0.5],[1,0.5]];portConstraint=eastwest;whiteSpace=wrap;" vertex="1" parent="636p3Qrel6MYF2gOgdj5-47">
          <mxGeometry y="29" width="140" height="25" as="geometry" />
        </mxCell>
      </root>
    </mxGraphModel>
  </diagram>
</mxfile>
